<svg xmlns="http://www.w3.org/2000/svg" viewBox="0 0 64 64">
  <defs>
    <linearGradient id="g" x1="0" y1="0" x2="0" y2="1">
      <stop offset="0%" stop-color="#FBF3DC"/>
      <stop offset="35%" stop-color="#EFC36A"/>
      <stop offset="70%" stop-color="#D9A441"/>
      <stop offset="100%" stop-color="#8E6722"/>
    </linearGradient>
  </defs>
  <rect width="64" height="64" rx="12" fill="#0C0B09"/>
  <circle cx="32" cy="32" r="28" fill="none" stroke="url(#g)" stroke-width="0.8" opacity="0.35"/>
  <g fill="url(#g)">
    <rect x="31.5" y="9" width="1" height="5"/>
    <rect x="28" y="14" width="8" height="6"/>
    <rect x="27" y="20" width="10" height="1"/>
    <rect x="24" y="21" width="16" height="7"/>
    <rect x="23" y="28" width="18" height="1"/>
    <rect x="19" y="29" width="26" height="9"/>
    <rect x="18" y="38" width="28" height="1"/>
    <rect x="13" y="39" width="38" height="11"/>
    <rect x="11" y="50" width="42" height="4"/>
  </g>
  <circle cx="32" cy="11" r="2" fill="none" stroke="url(#g)" stroke-width="0.7"/>
  <g fill="#0C0B09">
    <rect x="29.5" y="15" width="0.5" height="4"/>
    <rect x="31" y="15" width="0.5" height="4"/>
    <rect x="32.5" y="15" width="0.5" height="4"/>
    <rect x="34" y="15" width="0.5" height="4"/>
    <rect x="25" y="22.5" width="0.5" height="4.5"/>
    <rect x="27" y="22.5" width="0.5" height="4.5"/>
    <rect x="29" y="22.5" width="0.5" height="4.5"/>
    <rect x="31" y="22.5" width="0.5" height="4.5"/>
    <rect x="33" y="22.5" width="0.5" height="4.5"/>
    <rect x="35" y="22.5" width="0.5" height="4.5"/>
    <rect x="37" y="22.5" width="0.5" height="4.5"/>
    <rect x="39" y="22.5" width="0.5" height="4.5"/>
    <rect x="20" y="30" width="0.5" height="7"/>
    <rect x="22" y="30" width="0.5" height="7"/>
    <rect x="24" y="30" width="0.5" height="7"/>
    <rect x="26" y="30" width="0.5" height="7"/>
    <rect x="28" y="30" width="0.5" height="7"/>
    <rect x="30" y="30" width="0.5" height="7"/>
    <rect x="32" y="30" width="0.5" height="7"/>
    <rect x="34" y="30" width="0.5" height="7"/>
    <rect x="36" y="30" width="0.5" height="7"/>
    <rect x="38" y="30" width="0.5" height="7"/>
    <rect x="40" y="30" width="0.5" height="7"/>
    <rect x="42" y="30" width="0.5" height="7"/>
    <rect x="44" y="30" width="0.5" height="7"/>
    <rect x="14.5" y="40" width="0.5" height="9"/>
    <rect x="17" y="40" width="0.5" height="9"/>
    <rect x="19.5" y="40" width="0.5" height="9"/>
    <rect x="22" y="40" width="0.5" height="9"/>
    <rect x="24.5" y="40" width="0.5" height="9"/>
    <rect x="27" y="40" width="0.5" height="9"/>
    <rect x="29.5" y="40" width="0.5" height="9"/>
    <rect x="32" y="40" width="0.5" height="9"/>
    <rect x="34.5" y="40" width="0.5" height="9"/>
    <rect x="37" y="40" width="0.5" height="9"/>
    <rect x="39.5" y="40" width="0.5" height="9"/>
    <rect x="42" y="40" width="0.5" height="9"/>
    <rect x="44.5" y="40" width="0.5" height="9"/>
    <rect x="47" y="40" width="0.5" height="9"/>
    <rect x="49.5" y="40" width="0.5" height="9"/>
  </g>
</svg>
